<svg width="235" height="101" viewBox="0 0 235 101" fill="none" xmlns="http://www.w3.org/2000/svg">
<rect x="0.5" y="0.5" width="233.342" height="99.6904" rx="13.5" fill="white" stroke="#D9D9D9"/>
<path d="M101.586 20.1106C100.687 20.1106 99.9514 20.846 99.9514 21.7448V54.4289C99.9514 55.3277 100.687 56.0631 101.586 56.0631H134.27C135.168 56.0631 135.904 55.3277 135.904 54.4289V21.7448C135.904 20.846 135.168 20.1106 134.27 20.1106H101.586ZM95.0488 21.7448C95.0488 18.1394 97.9802 15.208 101.586 15.208H134.27C137.875 15.208 140.806 18.1394 140.806 21.7448V54.4289C140.806 58.0343 137.875 60.9657 134.27 60.9657H101.586C97.9802 60.9657 95.0488 58.0343 95.0488 54.4289V21.7448ZM108.122 25.0132C108.989 25.0132 109.821 25.3576 110.434 25.9705C111.047 26.5835 111.391 27.4148 111.391 28.2816C111.391 29.1485 111.047 29.9798 110.434 30.5927C109.821 31.2057 108.989 31.55 108.122 31.55C107.256 31.55 106.424 31.2057 105.811 30.5927C105.198 29.9798 104.854 29.1485 104.854 28.2816C104.854 27.4148 105.198 26.5835 105.811 25.9705C106.424 25.3576 107.256 25.0132 108.122 25.0132ZM122.013 32.3671C122.881 32.3671 123.688 32.8268 124.127 33.5724L132.298 47.4631C132.748 48.2189 132.748 49.1586 132.309 49.9246C131.869 50.6906 131.063 51.1605 130.184 51.1605H105.671C104.762 51.1605 103.914 50.6498 103.496 49.8429C103.077 49.036 103.138 48.0555 103.659 47.3099L109.379 39.1389C109.838 38.4852 110.584 38.0971 111.391 38.0971C112.198 38.0971 112.943 38.4852 113.403 39.1389L115.16 41.6514L119.909 33.5826C120.348 32.837 121.155 32.3773 122.023 32.3773L122.013 32.3671Z" fill="#C7C7C7"/>
<path d="M52.2381 82.4824H50.6937V74.2117H52.2381V82.4824ZM58.2547 79.0506C58.3195 79.1726 58.3786 79.3004 58.432 79.4338C58.4892 79.5635 58.5445 79.695 58.5979 79.8285C58.6512 79.6912 58.7065 79.5558 58.7637 79.4224C58.8209 79.2889 58.8819 79.1612 58.9468 79.0392L61.3948 74.4577C61.4253 74.4005 61.4558 74.3547 61.4863 74.3204C61.5206 74.2861 61.5568 74.2613 61.595 74.246C61.6369 74.2308 61.6827 74.2213 61.7323 74.2174C61.7818 74.2136 61.8409 74.2117 61.9096 74.2117H63.0707V82.4824H61.7151V77.1402C61.7151 77.0411 61.717 76.9324 61.7208 76.8142C61.7284 76.696 61.738 76.5759 61.7494 76.4538L59.2499 81.144C59.1927 81.2508 59.1183 81.3347 59.0268 81.3957C58.9353 81.4529 58.8285 81.4815 58.7065 81.4815H58.4949C58.3729 81.4815 58.2661 81.4529 58.1746 81.3957C58.0831 81.3347 58.0087 81.2508 57.9515 81.144L55.4177 76.4367C55.4329 76.5625 55.4425 76.6865 55.4463 76.8085C55.4539 76.9267 55.4577 77.0373 55.4577 77.1402V82.4824H54.1022V74.2117H55.2633C55.3319 74.2117 55.391 74.2136 55.4406 74.2174C55.4901 74.2213 55.534 74.2308 55.5721 74.246C55.6141 74.2613 55.6522 74.2861 55.6865 74.3204C55.7208 74.3547 55.7532 74.4005 55.7838 74.4577L58.2547 79.0506ZM72.007 82.4824H70.8173C70.6838 82.4824 70.5733 82.45 70.4855 82.3852C70.4017 82.3166 70.3407 82.2327 70.3025 82.1335L69.6848 80.4462H66.2587L65.641 82.1335C65.6105 82.2212 65.5494 82.3013 65.4579 82.3737C65.3702 82.4462 65.2615 82.4824 65.1319 82.4824H63.9365L67.1853 74.2117H68.7582L72.007 82.4824ZM66.6533 79.3595H69.2901L68.2835 76.6083C68.2377 76.4863 68.1862 76.3433 68.129 76.1793C68.0756 76.0115 68.0223 75.8304 67.9689 75.6359C67.9155 75.8304 67.8621 76.0115 67.8087 76.1793C67.7592 76.3471 67.7096 76.4939 67.66 76.6197L66.6533 79.3595ZM76.3662 81.3499C76.7132 81.3499 77.0144 81.3194 77.2699 81.2584C77.5292 81.1936 77.7752 81.1059 78.0078 80.9953V79.491H76.9725C76.8734 79.491 76.7952 79.4643 76.738 79.4109C76.6808 79.3537 76.6522 79.2851 76.6522 79.205V78.3356H79.4034V81.6817C79.1937 81.8342 78.9744 81.9676 78.7456 82.082C78.5206 82.1926 78.2785 82.2841 78.0192 82.3566C77.7637 82.429 77.4892 82.4824 77.1956 82.5167C76.902 82.5549 76.5855 82.5739 76.2461 82.5739C75.6436 82.5739 75.0888 82.4691 74.5817 82.2594C74.0745 82.0496 73.636 81.7579 73.2661 81.3842C72.8963 81.0106 72.6065 80.5644 72.3967 80.0458C72.1908 79.5272 72.0879 78.961 72.0879 78.3471C72.0879 77.7255 72.1889 77.1555 72.391 76.6369C72.5931 76.1183 72.8791 75.6722 73.249 75.2985C73.6227 74.9248 74.0745 74.635 74.6045 74.4291C75.1346 74.2232 75.7294 74.1202 76.3891 74.1202C77.064 74.1202 77.6474 74.2213 78.1393 74.4234C78.635 74.6216 79.0545 74.8809 79.3977 75.2012L78.9515 75.899C78.8638 76.0401 78.7475 76.1107 78.6026 76.1107C78.5111 76.1107 78.4177 76.0802 78.3224 76.0192C78.2003 75.9467 78.0745 75.8743 77.9449 75.8018C77.819 75.7294 77.6779 75.6664 77.5216 75.6131C77.3691 75.5597 77.1956 75.5158 77.0011 75.4815C76.8104 75.4472 76.5893 75.43 76.3376 75.43C75.9296 75.43 75.5597 75.4987 75.228 75.6359C74.9001 75.7732 74.6198 75.9696 74.3872 76.2251C74.1546 76.4805 73.9754 76.7875 73.8495 77.1459C73.7237 77.5044 73.6608 77.9047 73.6608 78.3471C73.6608 78.8237 73.7275 79.2489 73.861 79.6226C73.9944 79.9924 74.1813 80.3051 74.4215 80.5606C74.6617 80.8161 74.9477 81.0125 75.2795 81.1497C75.6112 81.2832 75.9735 81.3499 76.3662 81.3499ZM86.0515 74.2117V75.4357H82.3851V77.7293H85.2736V78.9133H82.3851V81.2527H86.0515V82.4824H80.8351V74.2117H86.0515ZM88.188 74.2117C88.2566 74.2117 88.3138 74.2155 88.3595 74.2232C88.4053 74.227 88.4453 74.2384 88.4797 74.2575C88.5178 74.2727 88.554 74.2975 88.5883 74.3318C88.6227 74.3623 88.6608 74.4043 88.7027 74.4577L93.044 79.9886C93.0287 79.8552 93.0173 79.7255 93.0097 79.5997C93.0059 79.47 93.004 79.3499 93.004 79.2393V74.2117H94.3595V82.4824H93.5645C93.4425 82.4824 93.3414 82.4634 93.2613 82.4252C93.1813 82.3871 93.1031 82.3185 93.0268 82.2193L88.7027 76.7112C88.7142 76.8333 88.7218 76.9553 88.7256 77.0773C88.7332 77.1955 88.7371 77.3042 88.7371 77.4033V82.4824H87.3815V74.2117H88.188ZM99.0465 74.2117C99.1151 74.2117 99.1723 74.2155 99.2181 74.2232C99.2638 74.227 99.3039 74.2384 99.3382 74.2575C99.3763 74.2727 99.4125 74.2975 99.4468 74.3318C99.4812 74.3623 99.5193 74.4043 99.5612 74.4577L103.903 79.9886C103.887 79.8552 103.876 79.7255 103.868 79.5997C103.864 79.47 103.862 79.3499 103.862 79.2393V74.2117H105.218V82.4824H104.423C104.301 82.4824 104.2 82.4634 104.12 82.4252C104.04 82.3871 103.962 82.3185 103.885 82.2193L99.5612 76.7112C99.5727 76.8333 99.5803 76.9553 99.5841 77.0773C99.5917 77.1955 99.5956 77.3042 99.5956 77.4033V82.4824H98.24V74.2117H99.0465ZM114.82 78.3471C114.82 78.9534 114.719 79.5158 114.517 80.0344C114.315 80.5492 114.03 80.9953 113.664 81.3728C113.298 81.7503 112.858 82.0458 112.343 82.2594C111.828 82.4691 111.258 82.5739 110.633 82.5739C110.008 82.5739 109.436 82.4691 108.917 82.2594C108.402 82.0458 107.96 81.7503 107.59 81.3728C107.224 80.9953 106.94 80.5492 106.738 80.0344C106.536 79.5158 106.435 78.9534 106.435 78.3471C106.435 77.7408 106.536 77.1803 106.738 76.6655C106.94 76.1469 107.224 75.6988 107.59 75.3213C107.96 74.9438 108.402 74.6502 108.917 74.4405C109.436 74.227 110.008 74.1202 110.633 74.1202C111.258 74.1202 111.828 74.227 112.343 74.4405C112.858 74.654 113.298 74.9496 113.664 75.3271C114.03 75.7008 114.315 76.1469 114.517 76.6655C114.719 77.1803 114.82 77.7408 114.82 78.3471ZM113.241 78.3471C113.241 77.8933 113.18 77.4872 113.058 77.1288C112.94 76.7665 112.768 76.4596 112.543 76.2079C112.318 75.9562 112.044 75.7637 111.72 75.6302C111.399 75.4968 111.037 75.43 110.633 75.43C110.229 75.43 109.865 75.4968 109.541 75.6302C109.216 75.7637 108.94 75.9562 108.711 76.2079C108.486 76.4596 108.313 76.7665 108.191 77.1288C108.069 77.4872 108.008 77.8933 108.008 78.3471C108.008 78.8008 108.069 79.2088 108.191 79.5711C108.313 79.9295 108.486 80.2346 108.711 80.4862C108.94 80.7341 109.216 80.9248 109.541 81.0582C109.865 81.1917 110.229 81.2584 110.633 81.2584C111.037 81.2584 111.399 81.1917 111.72 81.0582C112.044 80.9248 112.318 80.7341 112.543 80.4862C112.768 80.2346 112.94 79.9295 113.058 79.5711C113.18 79.2088 113.241 78.8008 113.241 78.3471ZM125.592 78.3471C125.592 78.9534 125.491 79.5101 125.289 80.0172C125.087 80.5244 124.803 80.961 124.437 81.327C124.07 81.6931 123.63 81.9772 123.115 82.1793C122.6 82.3814 122.03 82.4824 121.405 82.4824H118.248V74.2117H121.405C122.03 74.2117 122.6 74.3147 123.115 74.5206C123.63 74.7227 124.07 75.0068 124.437 75.3728C124.803 75.7351 125.087 76.1698 125.289 76.6769C125.491 77.1841 125.592 77.7408 125.592 78.3471ZM124.019 78.3471C124.019 77.8933 123.958 77.4872 123.836 77.1288C123.714 76.7665 123.54 76.4615 123.315 76.2136C123.09 75.962 122.816 75.7694 122.492 75.6359C122.172 75.5025 121.809 75.4357 121.405 75.4357H119.798V81.2584H121.405C121.809 81.2584 122.172 81.1917 122.492 81.0582C122.816 80.9248 123.09 80.7341 123.315 80.4862C123.54 80.2346 123.714 79.9295 123.836 79.5711C123.958 79.2088 124.019 78.8008 124.019 78.3471ZM128.527 82.4824H126.983V74.2117H128.527V82.4824ZM134.824 75.716C134.782 75.7999 134.732 75.859 134.675 75.8933C134.622 75.9276 134.557 75.9448 134.481 75.9448C134.404 75.9448 134.319 75.9162 134.223 75.859C134.128 75.798 134.015 75.7313 133.886 75.6588C133.756 75.5864 133.604 75.5215 133.428 75.4643C133.257 75.4033 133.053 75.3728 132.816 75.3728C132.603 75.3728 132.416 75.3995 132.256 75.4529C132.099 75.5025 131.966 75.573 131.855 75.6645C131.748 75.756 131.668 75.8666 131.615 75.9963C131.562 76.1221 131.535 76.2613 131.535 76.4138C131.535 76.6083 131.588 76.7703 131.695 76.9C131.806 77.0296 131.951 77.1402 132.13 77.2317C132.309 77.3232 132.513 77.4052 132.742 77.4777C132.971 77.5501 133.203 77.6283 133.44 77.7122C133.68 77.7923 133.914 77.8876 134.143 77.9982C134.372 78.1049 134.576 78.2422 134.755 78.41C134.934 78.574 135.077 78.7761 135.184 79.0163C135.295 79.2565 135.35 79.5482 135.35 79.8914C135.35 80.2651 135.285 80.6159 135.156 80.9438C135.03 81.2679 134.843 81.552 134.595 81.7961C134.351 82.0363 134.052 82.2269 133.697 82.368C133.342 82.5053 132.936 82.5739 132.479 82.5739C132.216 82.5739 131.956 82.5472 131.701 82.4939C131.445 82.4443 131.199 82.3718 130.963 82.2765C130.73 82.1812 130.511 82.0668 130.305 81.9333C130.103 81.7999 129.922 81.6512 129.762 81.4872L130.208 80.7494C130.25 80.696 130.299 80.6521 130.357 80.6178C130.418 80.5797 130.484 80.5606 130.557 80.5606C130.652 80.5606 130.755 80.6006 130.866 80.6807C130.976 80.757 131.106 80.8428 131.255 80.9381C131.407 81.0334 131.585 81.1211 131.787 81.2012C131.993 81.2775 132.238 81.3156 132.524 81.3156C132.963 81.3156 133.302 81.2126 133.543 81.0067C133.783 80.797 133.903 80.4977 133.903 80.1087C133.903 79.8914 133.848 79.7141 133.737 79.5768C133.63 79.4395 133.487 79.3251 133.308 79.2336C133.129 79.1383 132.925 79.0582 132.696 78.9934C132.467 78.9286 132.235 78.858 131.998 78.7818C131.762 78.7055 131.529 78.614 131.3 78.5072C131.072 78.4005 130.868 78.2613 130.688 78.0897C130.509 77.9181 130.364 77.7046 130.254 77.4491C130.147 77.1898 130.094 76.8714 130.094 76.4939C130.094 76.1926 130.153 75.899 130.271 75.6131C130.393 75.3271 130.568 75.0735 130.797 74.8523C131.03 74.6312 131.314 74.4539 131.649 74.3204C131.985 74.1869 132.368 74.1202 132.799 74.1202C133.287 74.1202 133.737 74.1965 134.149 74.349C134.561 74.5015 134.911 74.7151 135.201 74.9896L134.824 75.716ZM138.114 79.5711V82.4824H136.576V74.2117H139.27C139.822 74.2117 140.301 74.2765 140.705 74.4062C141.109 74.5358 141.443 74.717 141.706 74.9496C141.969 75.1822 142.164 75.4605 142.29 75.7846C142.415 76.1088 142.478 76.4634 142.478 76.8485C142.478 77.2489 142.412 77.6169 142.278 77.9524C142.145 78.2842 141.944 78.5701 141.678 78.8104C141.411 79.0506 141.077 79.2374 140.677 79.3709C140.276 79.5044 139.807 79.5711 139.27 79.5711H138.114ZM138.114 78.37H139.27C139.552 78.37 139.798 78.3356 140.007 78.267C140.217 78.1945 140.391 78.0935 140.528 77.9639C140.665 77.8304 140.768 77.6702 140.837 77.4834C140.905 77.2927 140.94 77.0811 140.94 76.8485C140.94 76.6273 140.905 76.4272 140.837 76.2479C140.768 76.0687 140.665 75.9162 140.528 75.7904C140.391 75.6645 140.217 75.5692 140.007 75.5044C139.798 75.4357 139.552 75.4014 139.27 75.4014H138.114V78.37ZM151.607 78.3471C151.607 78.9534 151.506 79.5158 151.304 80.0344C151.102 80.5492 150.818 80.9953 150.452 81.3728C150.085 81.7503 149.645 82.0458 149.13 82.2594C148.616 82.4691 148.045 82.5739 147.42 82.5739C146.795 82.5739 146.223 82.4691 145.704 82.2594C145.189 82.0458 144.747 81.7503 144.377 81.3728C144.011 80.9953 143.727 80.5492 143.525 80.0344C143.323 79.5158 143.222 78.9534 143.222 78.3471C143.222 77.7408 143.323 77.1803 143.525 76.6655C143.727 76.1469 144.011 75.6988 144.377 75.3213C144.747 74.9438 145.189 74.6502 145.704 74.4405C146.223 74.227 146.795 74.1202 147.42 74.1202C148.045 74.1202 148.616 74.227 149.13 74.4405C149.645 74.654 150.085 74.9496 150.452 75.3271C150.818 75.7008 151.102 76.1469 151.304 76.6655C151.506 77.1803 151.607 77.7408 151.607 78.3471ZM150.028 78.3471C150.028 77.8933 149.967 77.4872 149.845 77.1288C149.727 76.7665 149.555 76.4596 149.33 76.2079C149.106 75.9562 148.831 75.7637 148.507 75.6302C148.187 75.4968 147.824 75.43 147.42 75.43C147.016 75.43 146.652 75.4968 146.328 75.6302C146.004 75.7637 145.727 75.9562 145.498 76.2079C145.273 76.4596 145.1 76.7665 144.978 77.1288C144.856 77.4872 144.795 77.8933 144.795 78.3471C144.795 78.8008 144.856 79.2088 144.978 79.5711C145.1 79.9295 145.273 80.2346 145.498 80.4862C145.727 80.7341 146.004 80.9248 146.328 81.0582C146.652 81.1917 147.016 81.2584 147.42 81.2584C147.824 81.2584 148.187 81.1917 148.507 81.0582C148.831 80.9248 149.106 80.7341 149.33 80.4862C149.555 80.2346 149.727 79.9295 149.845 79.5711C149.967 79.2088 150.028 78.8008 150.028 78.3471ZM153.629 74.2117C153.698 74.2117 153.755 74.2155 153.801 74.2232C153.847 74.227 153.887 74.2384 153.921 74.2575C153.959 74.2727 153.996 74.2975 154.03 74.3318C154.064 74.3623 154.102 74.4043 154.144 74.4577L158.485 79.9886C158.47 79.8552 158.459 79.7255 158.451 79.5997C158.447 79.47 158.445 79.3499 158.445 79.2393V74.2117H159.801V82.4824H159.006C158.884 82.4824 158.783 82.4634 158.703 82.4252C158.623 82.3871 158.545 82.3185 158.468 82.2193L154.144 76.7112C154.156 76.8333 154.163 76.9553 154.167 77.0773C154.175 77.1955 154.179 77.3042 154.179 77.4033V82.4824H152.823V74.2117H153.629ZM163.203 82.4824H161.658V74.2117H163.203V82.4824ZM165.067 82.4824V74.2117H167.921C168.462 74.2117 168.924 74.2632 169.305 74.3662C169.69 74.4691 170.005 74.6159 170.249 74.8066C170.497 74.9972 170.678 75.2279 170.792 75.4987C170.907 75.7694 170.964 76.0744 170.964 76.4138C170.964 76.6083 170.935 76.7951 170.878 76.9743C170.821 77.1497 170.731 77.3156 170.609 77.472C170.491 77.6245 170.338 77.7637 170.152 77.8895C169.969 78.0153 169.749 78.1221 169.494 78.2098C170.63 78.4653 171.198 79.0792 171.198 80.0515C171.198 80.4024 171.132 80.7265 170.998 81.0239C170.865 81.3213 170.67 81.5787 170.415 81.7961C170.159 82.0096 169.845 82.1774 169.471 82.2994C169.097 82.4214 168.67 82.4824 168.19 82.4824H165.067ZM166.605 78.8561V81.2813H168.167C168.453 81.2813 168.691 81.247 168.882 81.1783C169.076 81.1097 169.231 81.0182 169.345 80.9038C169.463 80.7894 169.547 80.6559 169.597 80.5034C169.65 80.3509 169.677 80.1888 169.677 80.0172C169.677 79.838 169.648 79.6779 169.591 79.5368C169.534 79.3919 169.444 79.2699 169.322 79.1707C169.2 79.0678 169.044 78.9896 168.853 78.9362C168.663 78.8828 168.432 78.8561 168.161 78.8561H166.605ZM166.605 77.7923H167.835C168.357 77.7923 168.754 77.6969 169.025 77.5063C169.296 77.3156 169.431 77.0125 169.431 76.5968C169.431 76.166 169.309 75.859 169.065 75.676C168.821 75.4929 168.439 75.4014 167.921 75.4014H166.605V77.7923ZM174.057 81.2126H177.368V82.4824H172.518V74.2117H174.057V81.2126ZM183.644 74.2117V75.4357H179.978V77.7293H182.866V78.9133H179.978V81.2527H183.644V82.4824H178.428V74.2117H183.644Z" fill="#C7C7C7"/>
</svg>
